<svg xmlns="http://www.w3.org/2000/svg" width="8.749" height="10.112" viewBox="0 0 8.749 10.112">
  <path id="Icon_awesome-shopping-bag" data-name="Icon awesome-shopping-bag" d="M6.717,3.1V2.478a2.443,2.443,0,1,0-4.885,0V3.1H0V8.363A1.538,1.538,0,0,0,1.527,9.912h5.5A1.538,1.538,0,0,0,8.549,8.363V3.1ZM3.053,2.478a1.221,1.221,0,1,1,2.443,0V3.1H3.053ZM6.107,4.8a.465.465,0,1,1,.458-.465A.461.461,0,0,1,6.107,4.8Zm-3.664,0A.465.465,0,1,1,2.9,4.336.461.461,0,0,1,2.443,4.8Z" transform="translate(0.1 0.1)" fill="none" stroke="#000" stroke-width="0.2"/>
</svg>
