<svg xmlns="http://www.w3.org/2000/svg" width="7.261" height="7.77" viewBox="0 0 7.261 7.77">
  <path id="Icon_material-add-shopping-cart" data-name="Icon material-add-shopping-cart" d="M3.543,4.748h.709v1.1H5.315v.73H4.252v1.1H3.543v-1.1H2.48v-.73H3.543ZM2.126,1.461A.719.719,0,0,1,1.421.73.719.719,0,0,1,2.126,0a.722.722,0,0,1,.709.73A.722.722,0,0,1,2.126,1.461Zm3.543,0A.719.719,0,0,1,4.964.73a.707.707,0,1,1,1.414,0A.722.722,0,0,1,5.669,1.461ZM2.186,2.648l.011.044.319.6h2.64a.7.7,0,0,1,.62.376l1.368,2.56-.617.351h0l-.39-.73L5.156,4.018H2.668l-.046.1L1.828,5.844l-.337.73-.333.73H0v-.73H.709L1.984,3.8l-.478-.895a.732.732,0,0,1,.62-1.081H6.378v.73h-4.1A.091.091,0,0,0,2.186,2.648Z" transform="translate(7.211 7.72) rotate(180)" stroke="#000" stroke-width="0.1" style="mix-blend-mode: darken;isolation: isolate"/>
</svg>


