<svg xmlns="http://www.w3.org/2000/svg" width="9.648" height="8.854" viewBox="0 0 9.648 8.854">
  <path id="Icon_zocial-email" data-name="Icon zocial-email" d="M.072,11.864V4.826q0-.012.027-.232L3.155,8.137.108,12.109a1.368,1.368,0,0,1-.036-.244ZM.478,4.1a.3.3,0,0,1,.153-.037h8.23a.391.391,0,0,1,.162.037L5.958,7.661l-.406.44-.8.892-.8-.892-.406-.44Zm.009,8.481,3.074-4L4.75,9.9,5.94,8.589l3.074,4a.334.334,0,0,1-.153.037H.631a.316.316,0,0,1-.144-.037ZM6.346,8.137,9.393,4.593a.969.969,0,0,1,.027.232v7.039a1.249,1.249,0,0,1-.027.244Z" transform="translate(0.078 -3.918)" fill="#fff" stroke="#000" stroke-width="0.3"/>
</svg>
