<svg xmlns="http://www.w3.org/2000/svg" width="9.794" height="9.135" viewBox="0 0 9.794 9.135">
  <path id="Icon_ionic-ios-heart-empty" data-name="Icon ionic-ios-heart-empty" d="M10.021,3.938H10A2.517,2.517,0,0,0,7.922,5.024,2.517,2.517,0,0,0,5.845,3.938H5.823A2.418,2.418,0,0,0,3.375,6.3,4.947,4.947,0,0,0,4.42,9.073a18.013,18.013,0,0,0,3.5,3.225,18.013,18.013,0,0,0,3.5-3.225A4.947,4.947,0,0,0,12.469,6.3,2.418,2.418,0,0,0,10.021,3.938Zm.909,4.79a16.447,16.447,0,0,1-3.008,2.834A16.471,16.471,0,0,1,4.914,8.726,4.385,4.385,0,0,1,3.987,6.3a1.729,1.729,0,0,1,.538-1.25,1.889,1.889,0,0,1,1.3-.525h.02a1.9,1.9,0,0,1,.9.226,1.878,1.878,0,0,1,.665.6.63.63,0,0,0,1.027,0A1.9,1.9,0,0,1,10,4.525h.02a1.893,1.893,0,0,1,1.3.525,1.724,1.724,0,0,1,.538,1.25A4.441,4.441,0,0,1,10.93,8.728Z" transform="translate(-3.025 -3.588)" fill="none" stroke="#b59677" stroke-width="0.7"/>
</svg>
