<svg xmlns="http://www.w3.org/2000/svg" width="9.33" height="9.49" viewBox="0 0 9.33 9.49">
  <path id="Icon_ionic-ios-heart" data-name="Icon ionic-ios-heart" d="M9.974,3.938H9.952A2.442,2.442,0,0,0,7.89,5.127a2.442,2.442,0,0,0-2.062-1.19H5.806A2.524,2.524,0,0,0,3.375,6.523,5.764,5.764,0,0,0,4.413,9.559a18.607,18.607,0,0,0,3.477,3.53,18.607,18.607,0,0,0,3.477-3.53A5.764,5.764,0,0,0,12.4,6.523,2.524,2.524,0,0,0,9.974,3.938Z" transform="translate(-3.225 -3.787)" fill="none" stroke="#b59677" stroke-width="0.3"/>
</svg>
