<svg xmlns="http://www.w3.org/2000/svg" width="13.199" height="11.181" viewBox="0 0 13.199 11.181">
  <path id="Icon_ionic-ios-heart-empty" data-name="Icon ionic-ios-heart-empty" d="M13.02,3.938h-.032A3.749,3.749,0,0,0,9.974,5.391,3.749,3.749,0,0,0,6.96,3.938H6.929A3.39,3.39,0,0,0,3.375,7.1a6.308,6.308,0,0,0,1.517,3.709,25.564,25.564,0,0,0,5.083,4.313,25.564,25.564,0,0,0,5.083-4.313A6.308,6.308,0,0,0,16.574,7.1,3.39,3.39,0,0,0,13.02,3.938Zm1.32,6.407a23.225,23.225,0,0,1-4.366,3.79,23.256,23.256,0,0,1-4.366-3.793A5.592,5.592,0,0,1,4.263,7.1a2.23,2.23,0,0,1,.781-1.672,2.869,2.869,0,0,1,1.891-.7h.029a2.944,2.944,0,0,1,1.3.3,2.664,2.664,0,0,1,.965.8.961.961,0,0,0,1.491,0,2.691,2.691,0,0,1,.965-.8,2.944,2.944,0,0,1,1.3-.3h.029a2.876,2.876,0,0,1,1.891.7A2.224,2.224,0,0,1,15.692,7.1,5.664,5.664,0,0,1,14.34,10.344Z" transform="translate(-3.375 -3.938)" fill="#fff"/>
</svg>
