<svg xmlns="http://www.w3.org/2000/svg" width="7.733" height="8.86" viewBox="0 0 7.733 8.86">
  <path id="Icon_material-phone" data-name="Icon material-phone" d="M5.955,8.118A6.641,6.641,0,0,0,8.6,11.179l.884-1.022a.362.362,0,0,1,.41-.111,4.024,4.024,0,0,0,1.435.265.438.438,0,0,1,.4.464V12.4a.438.438,0,0,1-.4.464c-3.773,0-6.831-3.535-6.831-7.9A.438.438,0,0,1,4.9,4.5H6.308a.438.438,0,0,1,.4.464,6.032,6.032,0,0,0,.229,1.658.518.518,0,0,1-.1.474Z" transform="translate(-4.25 -4.25)" fill="#222" stroke="#fff" stroke-width="0.5"/>
</svg>
