<svg xmlns="http://www.w3.org/2000/svg" width="7.952" height="8.27" viewBox="0 0 7.952 8.27">
  <path id="Icon_ionic-ios-search" data-name="Icon ionic-ios-search" d="M11.731,11.608,9.7,9.455a3.142,3.142,0,0,0,.638-1.907A2.988,2.988,0,0,0,7.417,4.493,2.99,2.99,0,0,0,4.5,7.55a2.988,2.988,0,0,0,2.917,3.055,2.826,2.826,0,0,0,1.839-.683l2.022,2.139a.305.305,0,0,0,.227.1.3.3,0,0,0,.215-.09A.342.342,0,0,0,11.731,11.608ZM7.417,9.948a2.224,2.224,0,0,1-1.62-.7,2.478,2.478,0,0,1,0-3.391,2.218,2.218,0,0,1,3.239,0,2.478,2.478,0,0,1,0,3.391A2.224,2.224,0,0,1,7.417,9.948Z" transform="translate(-4.2 -4.193)" fill="#fff" stroke="#000" stroke-width="0.6"/>
</svg>

