<svg xmlns="http://www.w3.org/2000/svg" width="7.294" height="7.77" viewBox="0 0 7.294 7.77">
  <path id="Icon_awesome-store-alt" data-name="Icon awesome-store-alt" d="M3.6,5.752H1.44v-2.4H.722V7.191c0,.265.161.479.359.479H3.956c.2,0,.359-.214.359-.479V3.356H3.6ZM7.129,2.13,6.171.213A.348.348,0,0,0,5.871,0H1.321a.345.345,0,0,0-.3.213L.065,2.13c-.159.319.011.746.3.746H6.83C7.117,2.876,7.288,2.449,7.129,2.13ZM5.752,7.43c0,.132.081.24.18.24h.359c.1,0,.18-.108.18-.24V3.356H5.752Z" transform="translate(0.05 0.05)" stroke="#000" stroke-width="0.1"/>
</svg>

