<svg xmlns="http://www.w3.org/2000/svg" width="7.434" height="8.971" viewBox="0 0 7.434 8.971">
  <path id="Icon_awesome-trash-alt" data-name="Icon awesome-trash-alt" d="M.531,8.13a.82.82,0,0,0,.8.841H6.106a.82.82,0,0,0,.8-.841V2.243H.531ZM5.044,3.644a.266.266,0,1,1,.531,0V7.569a.266.266,0,1,1-.531,0Zm-1.593,0a.266.266,0,1,1,.531,0V7.569a.266.266,0,1,1-.531,0Zm-1.593,0a.266.266,0,1,1,.531,0V7.569a.266.266,0,1,1-.531,0ZM7.168.561H5.177L5.021.233A.4.4,0,0,0,4.664,0h-1.9a.392.392,0,0,0-.355.233L2.257.561H.265A.273.273,0,0,0,0,.841V1.4a.273.273,0,0,0,.265.28h6.9a.273.273,0,0,0,.265-.28V.841A.273.273,0,0,0,7.168.561Z" fill="#fff"/>
</svg>
